# xmcd CD database file
#
# Track frame offsets:
#	150
#	12732
#	24550
#	34705
#	47585
#	58140
#	68447
#	84837
#	100472
#	117640
#	127722
#	142727
#	151117
#	163547
#
# Disc length: 2280 seconds
#
# Revision: 0
# Processed by: cddbd v1.5.2PL0 Copyright (c) Steve Scherf et al.
# Submitted via: CDex 1.51
#
DISCID=a908e60e
DTITLE=Various Artist - Trampsaka romance 3
DYEAR=1975
DGENRE=Country
TTITLE0=01-Rackove_Soumrak
TTITLE1=02-Inkognito_Zlata reka
TTITLE2=03-Inkognito_Kovboj od zlate reky
TTITLE3=04-Inkognito_Umrel nam kamarad
TTITLE4=05-Cervanek_Lupeni
TTITLE5=06-Cervanek_More huci
TTITLE6=07-Krajanci_Kdybys aspon lepelhal
TTITLE7=08-Setleri_On marinak byl silhavy
TTITLE8=09-Setleri_Nekdy vsak prece jen
TTITLE9=10-Rackove_Muj clun te ceka
TTITLE10=11-Setleri_Az za horou se rozedni
TTITLE11=12-Cervanek_Kytara a ty
TTITLE12=13-Setleri_Reka nas vola
TTITLE13=14-Krajanci_Rumpal
EXTD=YEAR: 1975
EXTT0=
EXTT1=
EXTT2=
EXTT3=
EXTT4=
EXTT5=
EXTT6=
EXTT7=
EXTT8=
EXTT9=
EXTT10=
EXTT11=
EXTT12=
EXTT13=
PLAYORDER=
